<svg width="64" height="64" viewBox="0 0 64 64" fill="none" xmlns="http://www.w3.org/2000/svg">
  <rect width="64" height="64" rx="16" fill="#0A0A0A"/>
  <circle cx="32" cy="34" r="22" stroke="#BFBFBF" stroke-width="4" stroke-linecap="round" stroke-dasharray="106 24"/>
  <path d="M29 9c0-2 1-3 3-3s3 1 3 3v8h4v10h-4v10c0 4 2 7 5 9 5 3 8 9 6 16-2 8-9 14-18 14h-2c-9 0-16-6-18-14-2-7 1-13 6-16 3-2 5-5 5-9V27h-4V17h4V9Z" fill="#FFFFFF"/>
  <path d="M32 11v24M29 13v20M35 13v20" stroke="#0A0A0A" stroke-width="1.8" stroke-linecap="round"/>
  <circle cx="32" cy="44" r="5" fill="#0A0A0A"/>
  <path d="M32 47l-5 11h10l-5-11Z" fill="#0A0A0A"/>
</svg>
