<svg width="1920" height="1080" viewBox="0 0 1920 1080" fill="none" xmlns="http://www.w3.org/2000/svg">
  <rect width="1920" height="1080" fill="#0A0A0A"/>
  <radialGradient id="moon" cx="0" cy="0" r="1" gradientUnits="userSpaceOnUse" gradientTransform="translate(1002 320) rotate(90) scale(255)">
    <stop stop-color="#E0E0E0" stop-opacity="0.62"/>
    <stop offset="0.45" stop-color="#FFFFFF" stop-opacity="0.18"/>
    <stop offset="1" stop-color="#0A0A0A" stop-opacity="0"/>
  </radialGradient>
  <radialGradient id="glow" cx="0" cy="0" r="1" gradientUnits="userSpaceOnUse" gradientTransform="translate(960 610) rotate(90) scale(520 880)">
    <stop stop-color="#FFFFFF" stop-opacity="0.26"/>
    <stop offset="1" stop-color="#0A0A0A" stop-opacity="0"/>
  </radialGradient>
  <rect width="1920" height="1080" fill="url(#moon)"/>
  <rect width="1920" height="1080" fill="url(#glow)"/>
  <path d="M0 687l184-119 146 90 201-163 171 155 182-206 174 201 204-135 178 125 207-142 273 194v393H0V687Z" fill="#141414"/>
  <path d="M0 768l234-105 152 68 189-91 202 111 216-121 221 107 214-88 227 112 265-112v431H0V768Z" fill="#101010"/>
  <path d="M0 796c244 43 455 64 692 59 333-7 533-96 830-65 154 16 276 54 398 111v179H0V796Z" fill="#050505"/>
  <circle cx="1002" cy="322" r="146" stroke="#E0E0E0" stroke-width="5" opacity="0.78"/>
  <use href="#mark" transform="translate(927 226) scale(0.6)"/>
  <g opacity="0.55">
    <path d="M0 850c322-78 561-88 881-14 407 93 656 43 1039-83" stroke="#FFFFFF" stroke-width="2"/>
    <path d="M0 888c322-78 561-88 881-14 407 93 656 43 1039-83" stroke="#E0E0E0" stroke-width="1"/>
    <path d="M0 927c322-78 561-88 881-14 407 93 656 43 1039-83" stroke="#FFFFFF" stroke-width="1"/>
  </g>
  <g fill="#F5F5F5" opacity="0.5">
    <circle cx="280" cy="130" r="2"/>
    <circle cx="422" cy="278" r="1.5"/>
    <circle cx="618" cy="174" r="1.4"/>
    <circle cx="811" cy="93" r="1.8"/>
    <circle cx="1226" cy="129" r="1.6"/>
    <circle cx="1404" cy="224" r="2"/>
    <circle cx="1598" cy="116" r="1.5"/>
    <circle cx="1732" cy="301" r="1.3"/>
  </g>
  <defs>
    <g id="mark">
      <path d="M111 27c0-10 7-17 17-17s17 7 17 17v15h14c6 0 10 4 10 10v8h9c5 0 9 4 9 9s-4 9-9 9h-9v19h9c5 0 9 4 9 9s-4 9-9 9h-9v27c0 14 8 26 20 34 25 16 39 44 33 74-8 35-39 60-77 60h-36c-38 0-69-25-77-60-6-30 8-58 33-74 12-8 20-20 20-34v-27h-9c-5 0-9-4-9-9s4-9 9-9h9V78h-9c-5 0-9-4-9-9s4-9 9-9h9v-8c0-6 4-10 10-10h14V27Z" fill="#FFFFFF"/>
      <path d="M128 41v118M113 46v104M143 46v104" stroke="#F5F5F5" stroke-width="6" stroke-linecap="round"/>
      <circle cx="128" cy="190" r="28" fill="#141414"/>
      <path d="M128 197l-23 55h46l-23-55Z" fill="#141414"/>
    </g>
  </defs>
</svg>
