<svg xmlns="http://www.w3.org/2000/svg" viewBox="0 0 64 64" width="64" height="64" role="img" aria-label="Ukulele favicon">
  <defs>
    <linearGradient id="fg" x1="0" y1="0" x2="1" y2="1">
      <stop offset="0" stop-color="#B16AFF"/>
      <stop offset="1" stop-color="#7B3FF2"/>
    </linearGradient>
    <mask id="fkh">
      <rect width="64" height="64" fill="#fff"/>
      <circle cx="32" cy="38" r="4.4" fill="#000"/>
      <path d="M30 41 L34 41 L35.5 50 L28.5 50 Z" fill="#000"/>
    </mask>
  </defs>
  <rect width="64" height="64" rx="16" fill="#1A1625"/>
  <circle cx="32" cy="39" r="21" fill="none" stroke="url(#fg)" stroke-width="2.6"/>
  <g fill="url(#fg)">
    <rect x="27.5" y="8" width="9" height="8" rx="3"/>
    <rect x="29.5" y="16" width="5" height="16" rx="1.6"/>
    <path mask="url(#fkh)" d="M32 30 c7 0 11 5 11 12 c0 8 -5 16 -11 16 c-6 0 -11 -8 -11 -16 c0 -7 4 -12 11 -12 Z"/>
  </g>
</svg>
