<svg xmlns="http://www.w3.org/2000/svg" viewBox="0 0 400 400" width="400" height="400" role="img" aria-label="Ukulele social profile icon">
  <defs>
    <radialGradient id="si-bg" cx="0.5" cy="0.4" r="0.8">
      <stop offset="0" stop-color="#1A1625"/>
      <stop offset="1" stop-color="#0E0B16"/>
    </radialGradient>
    <linearGradient id="si-g" x1="0" y1="0" x2="1" y2="1">
      <stop offset="0" stop-color="#B16AFF"/>
      <stop offset="1" stop-color="#7B3FF2"/>
    </linearGradient>
    <filter id="si-glow" x="-40%" y="-40%" width="180%" height="180%">
      <feGaussianBlur stdDeviation="10" result="b"/>
      <feMerge><feMergeNode in="b"/><feMergeNode in="SourceGraphic"/></feMerge>
    </filter>
    <mask id="si-kh">
      <rect width="400" height="400" fill="#fff"/>
      <circle cx="200" cy="238" r="24" fill="#000"/>
      <path d="M190 252 L210 252 L216 292 L184 292 Z" fill="#000"/>
    </mask>
  </defs>
  <rect width="400" height="400" rx="88" fill="url(#si-bg)"/>
  <g filter="url(#si-glow)">
    <circle cx="200" cy="244" r="118" fill="none" stroke="url(#si-g)" stroke-width="10"/>
    <g fill="url(#si-g)">
      <rect x="176" y="66" width="48" height="40" rx="14"/>
      <rect x="188" y="106" width="24" height="72" rx="6"/>
      <path mask="url(#si-kh)" d="M200 168 c38 0 58 26 58 64 c0 44 -26 90 -58 90 c-32 0 -58 -46 -58 -90 c0 -38 20 -64 58 -64 Z"/>
    </g>
    <g fill="#EDE8FF">
      <circle cx="150" cy="80" r="9"/><circle cx="150" cy="106" r="9"/>
      <circle cx="250" cy="80" r="9"/><circle cx="250" cy="106" r="9"/>
    </g>
  </g>
</svg>
